# 3ds Max Wavefront OBJ Exporter v0.97b - (c)2007 guruware
# File Created: 25.07.2013 22:14:19

#
# object Balko6SidesLoPoly021
#

v  -2.1149 3.6631 -5.0000
v  -4.2298 -0.0000 -5.0000
v  -4.2298 -0.0000 5.0000
v  -2.1149 3.6631 5.0000
v  2.1149 3.6631 -5.0000
v  2.1149 3.6631 5.0000
v  -2.1149 -3.6631 -5.0000
v  2.1149 -3.6631 -5.0000
v  2.1149 -3.6631 5.0000
v  -2.1149 -3.6631 5.0000
v  4.2298 0.0000 -5.0000
v  4.2298 0.0000 5.0000
v  -2.0122 3.4852 -5.0000
v  -2.0122 3.4852 5.0000
v  -4.0244 -0.0000 5.0000
v  -4.0244 -0.0000 -5.0000
v  2.0122 3.4852 -5.0000
v  2.0122 3.4852 5.0000
v  -2.0122 -3.4852 -5.0000
v  -2.0122 -3.4852 5.0000
v  2.0122 -3.4852 5.0000
v  2.0122 -3.4852 -5.0000
v  4.0244 0.0000 -5.0000
v  4.0244 0.0000 5.0000
# 24 vertices

vn -0.5000 0.8660 0.0000
vn -1.0000 -0.0000 0.0000
vn -1.0000 0.0000 0.0000
vn 0.5000 0.8660 -0.0000
vn -0.5000 -0.8660 0.0000
vn 0.5000 -0.8660 -0.0000
vn 1.0000 0.0000 -0.0000
# 7 vertex normals

vt 0.2500 0.4750 0.0000
vt 0.0250 0.4750 0.0000
vt 0.0250 0.0250 0.0000
vt 0.2500 0.0250 0.0000
vt 0.4750 0.4750 0.0000
vt 0.4750 0.0250 0.0000
vt 0.2500 0.9750 0.0000
vt 0.2500 0.5250 0.0000
vt 0.0250 0.5250 0.0000
vt 0.0250 0.9750 0.0000
vt 0.4750 0.9750 0.0000
vt 0.4750 0.5250 0.0000
# 12 texture coords

g Balko6SidesLoPoly021
f 1/1/1 2/2/2 3/3/3 
f 3/3/3 4/4/1 1/1/1 
f 5/5/4 1/1/1 4/4/1 
f 4/4/1 6/6/4 5/5/4 
f 7/1/5 8/2/6 9/3/6 
f 9/3/6 10/4/5 7/1/5 
f 2/5/2 7/1/5 10/4/5 
f 10/4/5 3/6/3 2/5/2 
f 11/1/7 5/2/4 6/3/4 
f 6/3/4 12/4/7 11/1/7 
f 8/5/6 11/1/7 12/4/7 
f 12/4/7 9/6/6 8/5/6 
f 13/7/6 14/8/6 15/9/7 
f 15/9/7 16/10/7 13/7/6 
f 17/11/5 18/12/5 14/8/6 
f 14/8/6 13/7/6 17/11/5 
f 19/7/4 20/8/4 21/9/1 
f 21/9/1 22/10/1 19/7/4 
f 16/11/7 15/12/7 20/8/4 
f 20/8/4 19/7/4 16/11/7 
f 23/7/2 24/8/2 18/9/5 
f 18/9/5 17/10/5 23/7/2 
f 22/11/1 21/12/1 24/8/2 
f 24/8/2 23/7/2 22/11/1 
# 24 faces

