# 3ds Max Wavefront OBJ Exporter v0.97b - (c)2007 guruware
# File Created: 17.07.2013 00:10:12

#
# object Balko6SidesCap2LoPoly019
#

v  4.2298 0.0000 -5.0000
v  2.1149 3.6631 -5.0000
v  0.0000 0.0000 -10.0000
v  -2.1149 3.6631 -5.0000
v  -4.2298 -0.0000 -5.0000
v  -2.1149 -3.6631 -5.0000
v  2.1149 -3.6631 -5.0000
v  4.0164 0.0000 -5.0000
v  2.0082 3.4783 -5.0000
v  -2.0082 3.4783 -5.0000
v  -4.0164 -0.0000 -5.0000
v  -2.0082 -3.4783 -5.0000
v  2.0082 -3.4783 -5.0000
# 13 vertices

vn 0.7635 0.0000 -0.6459
vn 0.3817 0.6612 -0.6459
vn 0.0000 0.0000 -1.0000
vn -0.3817 0.6612 -0.6459
vn -0.7635 0.0000 -0.6459
vn -0.3817 -0.6612 -0.6459
vn 0.3817 -0.6612 -0.6459
vn -0.7796 -0.0000 0.6263
vn -0.0000 -0.0000 1.0000
vn -0.3898 -0.6752 0.6263
vn 0.3898 -0.6752 0.6263
vn 0.7796 -0.0000 0.6263
vn 0.3898 0.6752 0.6263
vn -0.3898 0.6752 0.6263
# 14 vertex normals

vt 0.9988 0.2500 0.0005
vt 0.8744 0.4655 0.0005
vt 0.7500 0.2500 0.9995
vt 0.6256 0.4655 0.0005
vt 0.5012 0.2500 0.0005
vt 0.6256 0.0345 0.0005
vt 0.8744 0.0345 0.0005
vt 0.9988 0.7500 0.0005
vt 0.7500 0.7500 0.9995
vt 0.8744 0.9655 0.0005
vt 0.6256 0.9655 0.0005
vt 0.5012 0.7500 0.0005
vt 0.6256 0.5345 0.0005
vt 0.8744 0.5345 0.0005
# 14 texture coords

g Balko6SidesCap2LoPoly019
f 3/3/3 2/2/2 1/1/1 
f 3/3/3 4/4/4 2/2/2 
f 3/3/3 5/5/5 4/4/4 
f 3/3/3 6/6/6 5/5/5 
f 3/3/3 7/7/7 6/6/6 
f 3/3/3 1/1/1 7/7/7 
f 9/10/10 3/9/9 8/8/8 
f 10/11/11 3/9/9 9/10/10 
f 11/12/12 3/9/9 10/11/11 
f 12/13/13 3/9/9 11/12/12 
f 13/14/14 3/9/9 12/13/13 
f 8/8/8 3/9/9 13/14/14 
# 12 faces

