# 3ds Max Wavefront OBJ Exporter v0.97b - (c)2007 guruware
# File Created: 16.07.2013 23:14:23

#
# object Balko6SidesCap2LoPoly11
#

v  4.2298 0.0000 5.0000
v  2.1149 3.6631 5.0000
v  0.0000 -0.0000 10.0000
v  -2.1149 3.6631 5.0000
v  -4.2298 -0.0000 5.0000
v  -2.1149 -3.6631 5.0000
v  2.1149 -3.6631 5.0000
# 7 vertices

vn 0.7635 0.0000 0.6459
vn 0.3817 0.6612 0.6459
vn 0.0000 -0.0000 1.0000
vn -0.3817 0.6612 0.6459
vn -0.7635 -0.0000 0.6459
vn -0.3817 -0.6612 0.6459
vn 0.3817 -0.6612 0.6459
# 7 vertex normals

vt 0.3747 0.0625 0.0005
vt 0.3436 0.1164 0.0005
vt 0.3125 0.0625 0.9995
vt 0.2814 0.1164 0.0005
vt 0.2503 0.0625 0.0005
vt 0.2814 0.0086 0.0005
vt 0.3436 0.0086 0.0005
# 7 texture coords

g Balko6SidesCap2LoPoly11
f 1/1/1 2/2/2 3/3/3 
f 2/2/2 4/4/4 3/3/3 
f 4/4/4 5/5/5 3/3/3 
f 5/5/5 6/6/6 3/3/3 
f 6/6/6 7/7/7 3/3/3 
f 7/7/7 1/1/1 3/3/3 
# 6 faces

