# 3ds Max Wavefront OBJ Exporter v0.97b - (c)2007 guruware
# File Created: 16.07.2013 23:14:48

#
# object Balko6SidesCap2LoPoly08
#

v  4.2298 0.0000 -5.0000
v  2.1149 3.6631 -5.0000
v  0.0000 0.0000 -10.0000
v  -2.1149 3.6631 -5.0000
v  -4.2298 -0.0000 -5.0000
v  -2.1149 -3.6631 -5.0000
v  2.1149 -3.6631 -5.0000
# 7 vertices

vn 0.7635 0.0000 -0.6459
vn 0.3817 0.6612 -0.6459
vn 0.0000 0.0000 -1.0000
vn -0.3817 0.6612 -0.6459
vn -0.7635 -0.0000 -0.6459
vn -0.3817 -0.6612 -0.6459
vn 0.3817 -0.6612 -0.6459
# 7 vertex normals

vt 0.3747 0.0625 0.0005
vt 0.3436 0.1164 0.0005
vt 0.3125 0.0625 0.9995
vt 0.2814 0.1164 0.0005
vt 0.2503 0.0625 0.0005
vt 0.2814 0.0086 0.0005
vt 0.3436 0.0086 0.0005
# 7 texture coords

g Balko6SidesCap2LoPoly08
f 3/3/3 2/2/2 1/1/1 
f 3/3/3 4/4/4 2/2/2 
f 3/3/3 5/5/5 4/4/4 
f 3/3/3 6/6/6 5/5/5 
f 3/3/3 7/7/7 6/6/6 
f 3/3/3 1/1/1 7/7/7 
# 6 faces

