# 3ds Max Wavefront OBJ Exporter v0.94b - (c)2007 guruware
# File Created: 21.07.2012 12:18:12

#
# object Balko4Sides
#

v  2.0000 -2.0000 -0.0000
v  2.0000 2.0000 -0.0000
v  2.0000 2.0000 10.0000
v  2.0000 -2.0000 10.0000
v  -2.0000 2.0000 0.0000
v  -2.0000 2.0000 10.0000
v  -2.0000 -2.0000 0.0000
v  -2.0000 -2.0000 10.0000
# 8 vertices

vn 0.7071 -0.7071 -0.0000
vn 0.7071 0.7071 -0.0000
vn -0.7071 0.7071 0.0000
vn -0.7071 -0.7071 0.0000
# 4 vertex normals

vt 0.2437 0.0063 1.0000
vt 0.1875 0.0063 1.0000
vt 0.1875 0.1187 1.0000
vt 0.2437 0.1187 1.0000
vt 0.1312 0.0063 1.0000
vt 0.1312 0.1187 1.0000
# 6 texture coords

g Balko4Sides
f 1/1/1 2/2/2 3/3/2 
f 3/3/2 4/4/1 1/1/1 
f 2/2/2 5/5/3 6/6/3 
f 6/6/3 3/3/2 2/2/2 
f 5/1/3 7/2/4 8/3/4 
f 8/3/4 6/4/3 5/1/3 
f 7/2/4 1/5/1 4/6/1 
f 4/6/1 8/3/4 7/2/4 
# 8 faces

