# 3ds Max Wavefront OBJ Exporter v0.97b - (c)2007 guruware
# File Created: 16.07.2013 23:13:40

#
# object Balko6SidesLoPoly16
#

v  -4.2298 -0.0000 5.0000
v  -2.1149 3.6631 5.0000
v  -2.1149 3.6631 -5.0000
v  -4.2298 -0.0000 -5.0000
v  2.1149 3.6631 5.0000
v  2.1149 3.6631 -5.0000
v  2.1149 -3.6631 5.0000
v  -2.1149 -3.6631 5.0000
v  -2.1149 -3.6631 -5.0000
v  2.1149 -3.6631 -5.0000
v  4.2298 0.0000 5.0000
v  4.2298 0.0000 -5.0000
# 12 vertices

vn -1.0000 -0.0000 0.0000
vn -0.5000 0.8660 0.0000
vn 0.5000 0.8660 -0.0000
vn 0.5000 -0.8660 -0.0000
vn -0.5000 -0.8660 0.0000
vn 1.0000 0.0000 -0.0000
# 6 vertex normals

vt 0.1312 0.0063 0.0000
vt 0.1875 0.0063 0.0000
vt 0.1875 0.1187 0.0000
vt 0.1312 0.1187 0.0000
vt 0.2437 0.0063 0.0000
vt 0.2437 0.1187 0.0000
# 6 texture coords

g Balko6SidesLoPoly16
f 1/1/1 2/2/2 3/3/2 
f 1/1/1 3/3/2 4/4/1 
f 2/2/2 5/5/3 6/6/3 
f 2/2/2 6/6/3 3/3/2 
f 7/1/4 8/2/5 9/3/5 
f 7/1/4 9/3/5 10/4/4 
f 8/2/5 1/5/1 4/6/1 
f 8/2/5 4/6/1 9/3/5 
f 5/1/3 11/2/6 12/3/6 
f 5/1/3 12/3/6 6/4/3 
f 11/2/6 7/5/4 10/6/4 
f 11/2/6 10/6/4 12/3/6 
# 12 faces

