# 3ds Max Wavefront OBJ Exporter v0.94b - (c)2007 guruware
# File Created: 12.08.2012 19:16:28

#
# object Balko6SidesLoPoly15
#

v  -4.2298 -0.0000 -5.0000
v  -2.1149 3.6631 -5.0000
v  -2.1149 3.6631 -15.0000
v  -4.2298 -0.0000 -15.0000
v  2.1149 3.6631 -5.0000
v  2.1149 3.6631 -15.0000
v  2.1149 -3.6631 -5.0000
v  -2.1149 -3.6631 -5.0000
v  -2.1149 -3.6631 -15.0000
v  2.1149 -3.6631 -15.0000
v  4.2298 0.0000 -5.0000
v  4.2298 0.0000 -15.0000
# 12 vertices

vn -1.0000 -0.0000 0.0000
vn -0.5000 0.8660 0.0000
vn -1.0000 0.0000 0.0000
vn 0.5000 0.8660 -0.0000
vn 0.5000 -0.8660 -0.0000
vn -0.5000 -0.8660 0.0000
vn 1.0000 0.0000 -0.0000
# 7 vertex normals

vt 0.1312 0.0063 0.0000
vt 0.1875 0.0063 0.0000
vt 0.1875 0.1187 0.0000
vt 0.1312 0.1187 0.0000
vt 0.2437 0.0063 0.0000
vt 0.2437 0.1187 0.0000
# 6 texture coords

g Balko6SidesLoPoly15
f 1/1/1 2/2/2 3/3/2 
f 1/1/1 3/3/2 4/4/3 
f 2/2/2 5/5/4 6/6/4 
f 2/2/2 6/6/4 3/3/2 
f 7/1/5 8/2/6 9/3/6 
f 7/1/5 9/3/6 10/4/5 
f 8/2/6 1/5/1 4/6/3 
f 8/2/6 4/6/3 9/3/6 
f 5/1/4 11/2/7 12/3/7 
f 5/1/4 12/3/7 6/4/4 
f 11/2/7 7/5/5 10/6/5 
f 11/2/7 10/6/5 12/3/7 
# 12 faces

#
# object Balko6SidesCap2LoPoly06
#

v  4.2298 0.0000 -5.0000
v  2.1149 3.6631 -5.0000
v  0.0000 -0.0000 0.0000
v  -2.1149 3.6631 -5.0000
v  -4.2298 -0.0000 -5.0000
v  -2.1149 -3.6631 -5.0000
v  2.1149 -3.6631 -5.0000
# 7 vertices

vn 0.7635 -0.0000 0.6459
vn 0.3817 0.6612 0.6459
vn -0.0000 -0.0000 1.0000
vn -0.3817 0.6612 0.6459
vn -0.7635 -0.0000 0.6459
vn -0.3817 -0.6612 0.6459
vn 0.3817 -0.6612 0.6459
# 7 vertex normals

vt 0.3747 0.0625 0.0005
vt 0.3436 0.1164 0.0005
vt 0.3125 0.0625 0.9995
vt 0.2814 0.1164 0.0005
vt 0.2503 0.0625 0.0005
vt 0.2814 0.0086 0.0005
vt 0.3436 0.0086 0.0005
# 7 texture coords

g Balko6SidesCap2LoPoly06
f 13/7/8 14/8/9 15/9/10 
f 14/8/9 16/10/11 15/9/10 
f 16/10/11 17/11/12 15/9/10 
f 17/11/12 18/12/13 15/9/10 
f 18/12/13 19/13/14 15/9/10 
f 19/13/14 13/7/8 15/9/10 
# 6 faces

#
# object Balko6SidesCap2LoPoly07
#

v  4.2298 0.0000 -15.0000
v  2.1149 3.6631 -15.0000
v  0.0000 -0.0000 -20.0000
v  -2.1149 3.6631 -15.0000
v  -4.2298 -0.0000 -15.0000
v  -2.1149 -3.6631 -15.0000
v  2.1149 -3.6631 -15.0000
# 7 vertices

vn 0.7635 -0.0000 -0.6459
vn 0.3817 0.6612 -0.6459
vn -0.0000 -0.0000 -1.0000
vn -0.3817 0.6612 -0.6459
vn -0.7635 -0.0000 -0.6459
vn -0.3817 -0.6612 -0.6459
vn 0.3817 -0.6612 -0.6459
# 7 vertex normals

vt 0.3747 0.0625 0.0005
vt 0.3436 0.1164 0.0005
vt 0.3125 0.0625 0.9995
vt 0.2814 0.1164 0.0005
vt 0.2503 0.0625 0.0005
vt 0.2814 0.0086 0.0005
vt 0.3436 0.0086 0.0005
# 7 texture coords

g Balko6SidesCap2LoPoly07
f 22/16/17 21/15/16 20/14/15 
f 22/16/17 23/17/18 21/15/16 
f 22/16/17 24/18/19 23/17/18 
f 22/16/17 25/19/20 24/18/19 
f 22/16/17 26/20/21 25/19/20 
f 22/16/17 20/14/15 26/20/21 
# 6 faces

#
# object Balko6SidesCap2LoPoly08
#

v  4.2298 0.0000 -5.0000
v  2.1149 3.6631 -5.0000
v  0.0000 -0.0000 -10.0000
v  -2.1149 3.6631 -5.0000
v  -4.2298 -0.0000 -5.0000
v  -2.1149 -3.6631 -5.0000
v  2.1149 -3.6631 -5.0000
# 7 vertices

vn 0.7635 -0.0000 -0.6459
vn 0.3817 0.6612 -0.6459
vn -0.0000 -0.0000 -1.0000
vn -0.3817 0.6612 -0.6459
vn -0.7635 -0.0000 -0.6459
vn -0.3817 -0.6612 -0.6459
vn 0.3817 -0.6612 -0.6459
# 7 vertex normals

vt 0.3747 0.0625 0.0005
vt 0.3436 0.1164 0.0005
vt 0.3125 0.0625 0.9995
vt 0.2814 0.1164 0.0005
vt 0.2503 0.0625 0.0005
vt 0.2814 0.0086 0.0005
vt 0.3436 0.0086 0.0005
# 7 texture coords

g Balko6SidesCap2LoPoly08
f 29/23/24 28/22/23 27/21/22 
f 29/23/24 30/24/25 28/22/23 
f 29/23/24 31/25/26 30/24/25 
f 29/23/24 32/26/27 31/25/26 
f 29/23/24 33/27/28 32/26/27 
f 29/23/24 27/21/22 33/27/28 
# 6 faces

#
# object Balko6SidesLoPoly16
#

v  -4.2298 -0.0000 5.0000
v  -2.1149 3.6631 5.0000
v  -2.1149 3.6631 -5.0000
v  -4.2298 -0.0000 -5.0000
v  2.1149 3.6631 5.0000
v  2.1149 3.6631 -5.0000
v  2.1149 -3.6631 5.0000
v  -2.1149 -3.6631 5.0000
v  -2.1149 -3.6631 -5.0000
v  2.1149 -3.6631 -5.0000
v  4.2298 0.0000 5.0000
v  4.2298 0.0000 -5.0000
# 12 vertices

vn -1.0000 -0.0000 0.0000
vn -0.5000 0.8660 0.0000
vn -1.0000 0.0000 0.0000
vn 0.5000 0.8660 -0.0000
vn 0.5000 -0.8660 -0.0000
vn -0.5000 -0.8660 0.0000
vn 1.0000 0.0000 -0.0000
# 7 vertex normals

vt 0.1312 0.0063 0.0000
vt 0.1875 0.0063 0.0000
vt 0.1875 0.1187 0.0000
vt 0.1312 0.1187 0.0000
vt 0.2437 0.0063 0.0000
vt 0.2437 0.1187 0.0000
# 6 texture coords

g Balko6SidesLoPoly16
f 34/28/29 35/29/30 36/30/30 
f 34/28/29 36/30/30 37/31/31 
f 35/29/30 38/32/32 39/33/32 
f 35/29/30 39/33/32 36/30/30 
f 40/28/33 41/29/34 42/30/34 
f 40/28/33 42/30/34 43/31/33 
f 41/29/34 34/32/29 37/33/31 
f 41/29/34 37/33/31 42/30/34 
f 38/28/32 44/29/35 45/30/35 
f 38/28/32 45/30/35 39/31/32 
f 44/29/35 40/32/33 43/33/33 
f 44/29/35 43/33/33 45/30/35 
# 12 faces

#
# object Balko6SidesCap2LoPoly09
#

v  4.2298 0.0000 5.0000
v  2.1149 3.6631 5.0000
v  0.0000 -0.0000 0.0000
v  -2.1149 3.6631 5.0000
v  -4.2298 -0.0000 5.0000
v  -2.1149 -3.6631 5.0000
v  2.1149 -3.6631 5.0000
# 7 vertices

vn 0.7635 -0.0000 -0.6459
vn 0.3817 0.6612 -0.6459
vn -0.0000 -0.0000 -1.0000
vn -0.3817 0.6612 -0.6459
vn -0.7635 -0.0000 -0.6459
vn -0.3817 -0.6612 -0.6459
vn 0.3817 -0.6612 -0.6459
# 7 vertex normals

vt 0.3747 0.0625 0.0005
vt 0.3436 0.1164 0.0005
vt 0.3125 0.0625 0.9995
vt 0.2814 0.1164 0.0005
vt 0.2503 0.0625 0.0005
vt 0.2814 0.0086 0.0005
vt 0.3436 0.0086 0.0005
# 7 texture coords

g Balko6SidesCap2LoPoly09
f 48/36/38 47/35/37 46/34/36 
f 48/36/38 49/37/39 47/35/37 
f 48/36/38 50/38/40 49/37/39 
f 48/36/38 51/39/41 50/38/40 
f 48/36/38 52/40/42 51/39/41 
f 48/36/38 46/34/36 52/40/42 
# 6 faces

#
# object Balko6SidesLoPoly17
#

v  -4.2298 -0.0000 15.0000
v  -2.1149 3.6631 15.0000
v  -2.1149 3.6631 5.0000
v  -4.2298 -0.0000 5.0000
v  2.1149 3.6631 15.0000
v  2.1149 3.6631 5.0000
v  2.1149 -3.6631 15.0000
v  -2.1149 -3.6631 15.0000
v  -2.1149 -3.6631 5.0000
v  2.1149 -3.6631 5.0000
v  4.2298 0.0000 15.0000
v  4.2298 0.0000 5.0000
# 12 vertices

vn -1.0000 -0.0000 0.0000
vn -0.5000 0.8660 0.0000
vn -1.0000 0.0000 0.0000
vn 0.5000 0.8660 -0.0000
vn 0.5000 -0.8660 -0.0000
vn -0.5000 -0.8660 0.0000
vn 1.0000 0.0000 -0.0000
# 7 vertex normals

vt 0.1312 0.0063 0.0000
vt 0.1875 0.0063 0.0000
vt 0.1875 0.1187 0.0000
vt 0.1312 0.1187 0.0000
vt 0.2437 0.0063 0.0000
vt 0.2437 0.1187 0.0000
# 6 texture coords

g Balko6SidesLoPoly17
f 53/41/43 54/42/44 55/43/44 
f 53/41/43 55/43/44 56/44/45 
f 54/42/44 57/45/46 58/46/46 
f 54/42/44 58/46/46 55/43/44 
f 59/41/47 60/42/48 61/43/48 
f 59/41/47 61/43/48 62/44/47 
f 60/42/48 53/45/43 56/46/45 
f 60/42/48 56/46/45 61/43/48 
f 57/41/46 63/42/49 64/43/49 
f 57/41/46 64/43/49 58/44/46 
f 63/42/49 59/45/47 62/46/47 
f 63/42/49 62/46/47 64/43/49 
# 12 faces

#
# object Balko6SidesCap2LoPoly10
#

v  4.2298 0.0000 15.0000
v  2.1149 3.6631 15.0000
v  0.0000 -0.0000 20.0000
v  -2.1149 3.6631 15.0000
v  -4.2298 -0.0000 15.0000
v  -2.1149 -3.6631 15.0000
v  2.1149 -3.6631 15.0000
# 7 vertices

vn 0.7635 -0.0000 0.6459
vn 0.3817 0.6612 0.6459
vn -0.0000 -0.0000 1.0000
vn -0.3817 0.6612 0.6459
vn -0.7635 -0.0000 0.6459
vn -0.3817 -0.6612 0.6459
vn 0.3817 -0.6612 0.6459
# 7 vertex normals

vt 0.3747 0.0625 0.0005
vt 0.3436 0.1164 0.0005
vt 0.3125 0.0625 0.9995
vt 0.2814 0.1164 0.0005
vt 0.2503 0.0625 0.0005
vt 0.2814 0.0086 0.0005
vt 0.3436 0.0086 0.0005
# 7 texture coords

g Balko6SidesCap2LoPoly10
f 65/47/50 66/48/51 67/49/52 
f 66/48/51 68/50/53 67/49/52 
f 68/50/53 69/51/54 67/49/52 
f 69/51/54 70/52/55 67/49/52 
f 70/52/55 71/53/56 67/49/52 
f 71/53/56 65/47/50 67/49/52 
# 6 faces

#
# object Balko6SidesCap2LoPoly11
#

v  4.2298 0.0000 5.0000
v  2.1149 3.6631 5.0000
v  0.0000 -0.0000 10.0000
v  -2.1149 3.6631 5.0000
v  -4.2298 -0.0000 5.0000
v  -2.1149 -3.6631 5.0000
v  2.1149 -3.6631 5.0000
# 7 vertices

vn 0.7635 -0.0000 0.6459
vn 0.3817 0.6612 0.6459
vn -0.0000 -0.0000 1.0000
vn -0.3817 0.6612 0.6459
vn -0.7635 -0.0000 0.6459
vn -0.3817 -0.6612 0.6459
vn 0.3817 -0.6612 0.6459
# 7 vertex normals

vt 0.3747 0.0625 0.0005
vt 0.3436 0.1164 0.0005
vt 0.3125 0.0625 0.9995
vt 0.2814 0.1164 0.0005
vt 0.2503 0.0625 0.0005
vt 0.2814 0.0086 0.0005
vt 0.3436 0.0086 0.0005
# 7 texture coords

g Balko6SidesCap2LoPoly11
f 72/54/57 73/55/58 74/56/59 
f 73/55/58 75/57/60 74/56/59 
f 75/57/60 76/58/61 74/56/59 
f 76/58/61 77/59/62 74/56/59 
f 77/59/62 78/60/63 74/56/59 
f 78/60/63 72/54/57 74/56/59 
# 6 faces

