# 3ds Max Wavefront OBJ Exporter v0.97b - (c)2007 guruware
# File Created: 16.07.2013 23:58:04

#
# object Balko4SidesEmpty
#

v  2.0000 -2.0000 -0.0000
v  2.0000 2.0000 -0.0000
v  2.0000 2.0000 10.0000
v  2.0000 -2.0000 10.0000
v  -2.0000 2.0000 0.0000
v  -2.0000 2.0000 10.0000
v  -2.0000 -2.0000 0.0000
v  -2.0000 -2.0000 10.0000
v  1.8131 -1.8131 -0.0000
v  1.8131 -1.8131 10.0000
v  1.8131 1.8131 10.0000
v  1.8131 1.8131 -0.0000
v  -1.8131 1.8131 10.0000
v  -1.8131 1.8131 0.0000
v  -1.8131 -1.8131 10.0000
v  -1.8131 -1.8131 0.0000
# 16 vertices

vn 0.7071 -0.7071 -0.0000
vn 0.7071 0.7071 -0.0000
vn -0.7071 0.7071 0.0000
vn -0.7071 -0.7071 0.0000
# 4 vertex normals

vt 0.4720 0.0240 1.0000
vt 0.2480 0.0240 1.0000
vt 0.2480 0.4720 1.0000
vt 0.4720 0.4720 1.0000
vt 0.0240 0.0240 1.0000
vt 0.0240 0.4720 1.0000
vt 0.4720 0.5240 1.0000
vt 0.4720 0.9720 1.0000
vt 0.2480 0.9720 1.0000
vt 0.2480 0.5240 1.0000
vt 0.0240 0.9720 1.0000
vt 0.0240 0.5240 1.0000
# 12 texture coords

g Balko4SidesEmpty
f 1/1/1 2/2/2 3/3/2 
f 3/3/2 4/4/1 1/1/1 
f 2/2/2 5/5/3 6/6/3 
f 6/6/3 3/3/2 2/2/2 
f 5/1/3 7/2/4 8/3/4 
f 8/3/4 6/4/3 5/1/3 
f 7/2/4 1/5/1 4/6/1 
f 4/6/1 8/3/4 7/2/4 
f 9/7/3 10/8/3 11/9/4 
f 11/9/4 12/10/4 9/7/3 
f 12/10/4 11/9/4 13/11/1 
f 13/11/1 14/12/1 12/10/4 
f 14/7/1 13/8/1 15/9/2 
f 15/9/2 16/10/2 14/7/1 
f 16/10/2 15/9/2 10/11/3 
f 10/11/3 9/12/3 16/10/2 
# 16 faces

