# 3ds Max Wavefront OBJ Exporter v0.94b - (c)2007 guruware
# File Created: 08.07.2012 11:56:44

#
# object Balko6SidesCapLoPoly28
#

v  -2.1149 -3.6631 0.0000
v  -4.2298 0.0000 0.0000
v  -4.2298 -0.0000 -0.5000
v  -2.1149 -3.6631 -0.5000
v  2.1149 -3.6631 -0.0000
v  2.1149 -3.6631 -0.5000
v  4.2298 0.0000 -0.0000
v  4.2298 -0.0000 -0.5000
v  2.1149 3.6631 -0.0000
v  2.1149 3.6631 -0.5000
v  -2.1149 3.6631 0.0000
v  -2.1149 3.6631 -0.5000
# 12 vertices

vn -0.5000 -0.8660 -0.0000
vn -1.0000 0.0000 -0.0000
vn -1.0000 -0.0000 -0.0000
vn 0.5000 -0.8660 0.0000
vn 1.0000 0.0000 0.0000
vn 1.0000 -0.0000 0.0000
vn 0.5000 0.8660 0.0000
vn -0.5000 0.8660 -0.0000
vn -0.0000 0.0000 -1.0000
vn -0.0000 -0.0000 -1.0000
# 10 vertex normals

vt 0.3710 0.0931 0.0000
vt 0.3128 0.1225 0.0000
vt 0.3128 0.1153 0.0000
vt 0.3640 0.0894 0.0000
vt 0.3704 0.0335 0.0000
vt 0.3636 0.0371 0.0000
vt 0.3116 0.0035 0.0000
vt 0.3121 0.0108 0.0000
vt 0.2539 0.0330 0.0000
vt 0.2609 0.0367 0.0000
vt 0.2540 0.0924 0.0000
vt 0.2613 0.0889 0.0000
# 12 texture coords

g Balko6SidesCapLoPoly28
f 1/1/1 2/2/2 3/3/3 
f 3/3/3 4/4/1 1/1/1 
f 5/5/4 1/1/1 4/4/1 
f 4/4/1 6/6/4 5/5/4 
f 7/7/5 5/5/4 6/6/4 
f 6/6/4 8/8/6 7/7/5 
f 9/9/7 7/7/5 8/8/6 
f 8/8/6 10/10/7 9/9/7 
f 11/11/8 9/9/7 10/10/7 
f 10/10/7 12/12/8 11/11/8 
f 2/2/2 11/11/8 12/12/8 
f 12/12/8 3/3/3 2/2/2 
f 12/12/9 10/10/9 8/8/9 
f 8/8/10 6/6/10 4/4/10 
f 12/12/10 8/8/10 4/4/10 
f 3/3/10 12/12/10 4/4/10 
# 16 faces

