# 3ds Max Wavefront OBJ Exporter v0.94b - (c)2007 guruware
# File Created: 08.07.2012 11:44:51

#
# object FuelTankLod08
#

v  -0.0000 -0.0000 45.0000
v  3.0000 -0.8038 44.5911
v  3.0000 0.8038 44.5911
v  2.1962 2.1962 44.5911
v  0.8038 3.0000 44.5911
v  -0.8038 3.0000 44.5911
v  -2.1962 2.1962 44.5911
v  -3.0000 0.8038 44.5911
v  -3.0000 -0.8038 44.5911
v  -2.1962 -2.1961 44.5911
v  -0.8038 -3.0000 44.5911
v  0.8038 -3.0000 44.5911
v  2.1962 -2.1961 44.5911
v  -1.5529 5.7956 43.3923
v  1.5529 5.7956 43.3923
v  -2.1962 8.1962 41.4853
v  2.1962 8.1962 41.4853
v  -2.6897 10.0382 39.0000
v  2.6897 10.0382 39.0000
v  -3.0000 11.1961 36.1058
v  3.0000 11.1962 36.1058
v  -3.1058 11.5911 33.0000
v  3.1058 11.5911 33.0000
v  3.1058 11.5911 0.0000
v  -3.1058 11.5911 0.0000
v  4.2426 4.2426 43.3923
v  6.0000 6.0000 41.4853
v  7.3485 7.3485 39.0000
v  8.1961 8.1962 36.1058
v  8.4853 8.4853 33.0000
v  8.4853 8.4853 0.0000
v  5.7956 1.5529 43.3923
v  8.1961 2.1962 41.4853
v  10.0382 2.6897 39.0000
v  11.1961 3.0000 36.1058
v  11.5911 3.1058 33.0000
v  11.5911 3.1058 0.0000
v  5.7956 -1.5529 43.3923
v  8.1961 -2.1961 41.4853
v  10.0382 -2.6897 39.0000
v  11.1961 -3.0000 36.1058
v  11.5911 -3.1058 33.0000
v  11.5911 -3.1058 0.0000
v  4.2426 -4.2426 43.3923
v  6.0000 -6.0000 41.4853
v  7.3485 -7.3485 39.0000
v  8.1962 -8.1961 36.1058
v  8.4853 -8.4853 33.0000
v  8.4853 -8.4853 -0.0000
v  1.5529 -5.7955 43.3923
v  2.1962 -8.1961 41.4853
v  2.6897 -10.0382 39.0000
v  3.0000 -11.1961 36.1058
v  3.1058 -11.5911 33.0000
v  3.1058 -11.5911 -0.0000
v  -1.5529 -5.7955 43.3923
v  -2.1962 -8.1961 41.4853
v  -2.6897 -10.0382 39.0000
v  -3.0000 -11.1961 36.1058
v  -3.1058 -11.5911 33.0000
v  -3.1058 -11.5911 -0.0000
v  -4.2426 -4.2426 43.3923
v  -6.0000 -6.0000 41.4853
v  -7.3485 -7.3485 39.0000
v  -8.1961 -8.1961 36.1058
v  -8.4853 -8.4853 33.0000
v  -8.4853 -8.4853 -0.0000
v  -5.7956 -1.5529 43.3923
v  -8.1961 -2.1961 41.4853
v  -10.0382 -2.6897 39.0000
v  -11.1961 -3.0000 36.1058
v  -11.5911 -3.1058 33.0000
v  -11.5911 -3.1058 -0.0000
v  -5.7955 1.5529 43.3923
v  -8.1961 2.1962 41.4853
v  -10.0382 2.6897 39.0000
v  -11.1961 3.0000 36.1058
v  -11.5911 3.1058 33.0000
v  -11.5911 3.1058 0.0000
v  -4.2426 4.2426 43.3923
v  -6.0000 6.0000 41.4853
v  -7.3485 7.3485 39.0000
v  -8.1961 8.1962 36.1058
v  -8.4853 8.4853 33.0000
v  -8.4853 8.4853 0.0000
v  -0.0000 0.0000 -45.0000
v  3.0000 0.8039 -44.5911
v  3.0000 -0.8038 -44.5911
v  2.1962 2.1962 -44.5911
v  0.8038 3.0000 -44.5911
v  -0.8038 3.0000 -44.5911
v  -2.1962 2.1962 -44.5911
v  -3.0000 0.8039 -44.5911
v  -3.0000 -0.8038 -44.5911
v  -2.1962 -2.1961 -44.5911
v  -0.8038 -3.0000 -44.5911
v  0.8038 -3.0000 -44.5911
v  2.1962 -2.1961 -44.5911
v  -1.5529 5.7956 -43.3923
v  1.5529 5.7956 -43.3923
v  -2.1962 8.1962 -41.4853
v  2.1962 8.1962 -41.4853
v  -2.6897 10.0382 -39.0000
v  2.6897 10.0382 -39.0000
v  -3.0000 11.1962 -36.1058
v  3.0000 11.1962 -36.1058
v  -3.1058 11.5911 -33.0000
v  3.1058 11.5911 -33.0000
v  4.2426 4.2426 -43.3923
v  6.0000 6.0000 -41.4853
v  7.3485 7.3485 -39.0000
v  8.1961 8.1962 -36.1058
v  8.4853 8.4853 -33.0000
v  5.7956 1.5529 -43.3923
v  8.1961 2.1962 -41.4853
v  10.0382 2.6897 -39.0000
v  11.1961 3.0000 -36.1058
v  11.5911 3.1058 -33.0000
v  5.7956 -1.5529 -43.3923
v  8.1961 -2.1961 -41.4853
v  10.0382 -2.6897 -39.0000
v  11.1961 -3.0000 -36.1058
v  11.5911 -3.1058 -33.0000
v  4.2426 -4.2426 -43.3923
v  6.0000 -6.0000 -41.4853
v  7.3485 -7.3485 -39.0000
v  8.1961 -8.1961 -36.1058
v  8.4853 -8.4853 -33.0000
v  1.5529 -5.7955 -43.3923
v  2.1962 -8.1961 -41.4853
v  2.6897 -10.0382 -39.0000
v  3.0000 -11.1961 -36.1058
v  3.1058 -11.5911 -33.0000
v  -1.5529 -5.7955 -43.3923
v  -2.1962 -8.1961 -41.4853
v  -2.6897 -10.0382 -39.0000
v  -3.0000 -11.1961 -36.1058
v  -3.1058 -11.5911 -33.0000
v  -4.2426 -4.2426 -43.3923
v  -6.0000 -6.0000 -41.4853
v  -7.3485 -7.3485 -39.0000
v  -8.1961 -8.1961 -36.1058
v  -8.4853 -8.4853 -33.0000
v  -5.7955 -1.5529 -43.3923
v  -8.1961 -2.1961 -41.4853
v  -10.0382 -2.6897 -39.0000
v  -11.1961 -3.0000 -36.1058
v  -11.5911 -3.1058 -33.0000
v  -5.7955 1.5529 -43.3923
v  -8.1961 2.1962 -41.4853
v  -10.0382 2.6897 -39.0000
v  -11.1961 3.0000 -36.1058
v  -11.5911 3.1058 -33.0000
v  -4.2426 4.2426 -43.3923
v  -6.0000 6.0000 -41.4853
v  -7.3485 7.3485 -39.0000
v  -8.1961 8.1962 -36.1058
v  -8.4853 8.4853 -33.0000
# 158 vertices

vn -0.0000 -0.0000 1.0000
vn 0.2694 -0.0722 0.9603
vn 0.2694 0.0722 0.9603
vn 0.1972 0.1972 0.9603
vn 0.0722 0.2694 0.9603
vn -0.0722 0.2694 0.9603
vn -0.1972 0.1972 0.9603
vn -0.2694 0.0722 0.9603
vn -0.2694 -0.0722 0.9603
vn -0.1972 -0.1972 0.9603
vn -0.0722 -0.2694 0.9603
vn 0.0722 -0.2694 0.9603
vn 0.1972 -0.1972 0.9603
vn -0.1335 0.4983 0.8566
vn 0.1335 0.4983 0.8566
vn -0.1857 0.6931 0.6965
vn 0.1857 0.6931 0.6965
vn -0.2255 0.8415 0.4909
vn 0.2255 0.8415 0.4909
vn -0.2504 0.9344 0.2536
vn 0.2504 0.9344 0.2536
vn -0.2583 0.9639 0.0647
vn 0.2583 0.9639 0.0647
vn 0.2588 0.9659 0.0000
vn -0.2588 0.9659 0.0000
vn 0.3648 0.3648 0.8566
vn 0.5074 0.5074 0.6965
vn 0.6160 0.6160 0.4909
vn 0.6840 0.6840 0.2536
vn 0.7056 0.7056 0.0647
vn 0.7071 0.7071 0.0000
vn 0.4983 0.1335 0.8566
vn 0.6931 0.1857 0.6965
vn 0.8415 0.2255 0.4909
vn 0.9344 0.2504 0.2536
vn 0.9639 0.2583 0.0647
vn 0.9659 0.2588 0.0000
vn 0.4983 -0.1335 0.8566
vn 0.6931 -0.1857 0.6965
vn 0.8415 -0.2255 0.4909
vn 0.9344 -0.2504 0.2536
vn 0.9639 -0.2583 0.0647
vn 0.9659 -0.2588 -0.0000
vn 0.3648 -0.3648 0.8566
vn 0.5074 -0.5074 0.6965
vn 0.6160 -0.6160 0.4909
vn 0.6840 -0.6840 0.2536
vn 0.7056 -0.7056 0.0647
vn 0.7071 -0.7071 -0.0000
vn 0.1335 -0.4983 0.8566
vn 0.1857 -0.6931 0.6965
vn 0.2255 -0.8415 0.4909
vn 0.2504 -0.9344 0.2536
vn 0.2583 -0.9639 0.0647
vn 0.2588 -0.9659 -0.0000
vn -0.1335 -0.4983 0.8566
vn -0.1857 -0.6931 0.6965
vn -0.2255 -0.8415 0.4909
vn -0.2504 -0.9344 0.2536
vn -0.2583 -0.9639 0.0647
vn -0.2588 -0.9659 -0.0000
vn -0.3648 -0.3648 0.8566
vn -0.5074 -0.5074 0.6965
vn -0.6160 -0.6160 0.4909
vn -0.6840 -0.6840 0.2536
vn -0.7056 -0.7056 0.0647
vn -0.7071 -0.7071 -0.0000
vn -0.4983 -0.1335 0.8566
vn -0.6931 -0.1857 0.6965
vn -0.8415 -0.2255 0.4909
vn -0.9344 -0.2504 0.2536
vn -0.9639 -0.2583 0.0647
vn -0.9659 -0.2588 -0.0000
vn -0.4983 0.1335 0.8566
vn -0.6931 0.1857 0.6965
vn -0.8415 0.2255 0.4909
vn -0.9344 0.2504 0.2536
vn -0.9639 0.2583 0.0647
vn -0.9659 0.2588 -0.0000
vn -0.3648 0.3648 0.8566
vn -0.5074 0.5074 0.6965
vn -0.6160 0.6160 0.4909
vn -0.6840 0.6840 0.2536
vn -0.7056 0.7056 0.0647
vn -0.7071 0.7071 0.0000
vn -0.0000 -0.0000 -1.0000
vn 0.2694 0.0722 -0.9603
vn 0.2694 -0.0722 -0.9603
vn 0.1972 0.1972 -0.9603
vn 0.0722 0.2694 -0.9603
vn -0.0722 0.2694 -0.9603
vn -0.1972 0.1972 -0.9603
vn -0.2694 0.0722 -0.9603
vn -0.2694 -0.0722 -0.9603
vn -0.1972 -0.1972 -0.9603
vn -0.0722 -0.2694 -0.9603
vn 0.0722 -0.2694 -0.9603
vn 0.1972 -0.1972 -0.9603
vn -0.1335 0.4983 -0.8566
vn 0.1335 0.4983 -0.8566
vn -0.1857 0.6931 -0.6965
vn 0.1857 0.6931 -0.6965
vn -0.2255 0.8415 -0.4909
vn 0.2255 0.8415 -0.4909
vn -0.2504 0.9344 -0.2536
vn 0.2504 0.9344 -0.2536
vn -0.2583 0.9639 -0.0647
vn 0.2583 0.9639 -0.0647
vn 0.3648 0.3648 -0.8566
vn 0.5074 0.5074 -0.6965
vn 0.6160 0.6160 -0.4909
vn 0.6840 0.6840 -0.2536
vn 0.7056 0.7056 -0.0647
vn 0.4983 0.1335 -0.8566
vn 0.6931 0.1857 -0.6965
vn 0.8415 0.2255 -0.4909
vn 0.9344 0.2504 -0.2536
vn 0.9639 0.2583 -0.0647
vn 0.4983 -0.1335 -0.8566
vn 0.6931 -0.1857 -0.6965
vn 0.8415 -0.2255 -0.4909
vn 0.9344 -0.2504 -0.2536
vn 0.9639 -0.2583 -0.0647
vn 0.3648 -0.3648 -0.8566
vn 0.5074 -0.5074 -0.6965
vn 0.6160 -0.6160 -0.4909
vn 0.6840 -0.6840 -0.2536
vn 0.7056 -0.7056 -0.0647
vn 0.1335 -0.4983 -0.8566
vn 0.1857 -0.6931 -0.6965
vn 0.2255 -0.8415 -0.4909
vn 0.2504 -0.9344 -0.2536
vn 0.2583 -0.9639 -0.0647
vn -0.1335 -0.4983 -0.8566
vn -0.1857 -0.6931 -0.6965
vn -0.2255 -0.8415 -0.4909
vn -0.2504 -0.9344 -0.2536
vn -0.2583 -0.9639 -0.0647
vn -0.3648 -0.3648 -0.8566
vn -0.5074 -0.5074 -0.6965
vn -0.6160 -0.6160 -0.4909
vn -0.6840 -0.6840 -0.2536
vn -0.7056 -0.7056 -0.0647
vn -0.4983 -0.1335 -0.8566
vn -0.6931 -0.1857 -0.6965
vn -0.8415 -0.2255 -0.4909
vn -0.9344 -0.2504 -0.2536
vn -0.9639 -0.2583 -0.0647
vn -0.4983 0.1335 -0.8566
vn -0.6931 0.1857 -0.6965
vn -0.8415 0.2255 -0.4909
vn -0.9344 0.2504 -0.2536
vn -0.9639 0.2583 -0.0647
vn -0.3648 0.3648 -0.8566
vn -0.5074 0.5074 -0.6965
vn -0.6160 0.6160 -0.4909
vn -0.6840 0.6840 -0.2536
vn -0.7056 0.7056 -0.0647
# 158 vertex normals

vt 0.5360 0.1578 0.0000
vt 0.5284 0.1277 0.0000
vt 0.5441 0.1278 0.0000
vt 0.5577 0.1359 0.0000
vt 0.5655 0.1499 0.0000
vt 0.5654 0.1660 0.0000
vt 0.5574 0.1799 0.0000
vt 0.5437 0.1879 0.0000
vt 0.5279 0.1878 0.0000
vt 0.5144 0.1796 0.0000
vt 0.5066 0.1656 0.0000
vt 0.5067 0.1495 0.0000
vt 0.5147 0.1356 0.0000
vt 0.6167 0.1684 0.0000
vt 0.5856 0.1616 0.0000
vt 0.5856 0.1473 0.0000
vt 0.6168 0.1407 0.0000
vt 0.6481 0.1742 0.0000
vt 0.6483 0.1351 0.0000
vt 0.6798 0.1787 0.0000
vt 0.6800 0.1308 0.0000
vt 0.7118 0.1815 0.0000
vt 0.7120 0.1281 0.0000
vt 0.7438 0.1826 0.0000
vt 0.7441 0.1273 0.0000
vt 0.7456 0.1944 0.0000
vt 0.7455 0.2484 0.0000
vt 0.5034 0.2475 0.0000
vt 0.5035 0.1935 0.0000
# 29 texture coords

g FuelTankLod08
f 1/1/1 2/2/2 3/3/3 
f 1/1/1 3/3/3 4/4/4 
f 1/1/1 4/4/4 5/5/5 
f 1/1/1 5/5/5 6/6/6 
f 1/1/1 6/6/6 7/7/7 
f 1/1/1 7/7/7 8/8/8 
f 1/1/1 8/8/8 9/9/9 
f 1/1/1 9/9/9 10/10/10 
f 1/1/1 10/10/10 11/11/11 
f 1/1/1 11/11/11 12/12/12 
f 1/1/1 12/12/12 13/13/13 
f 1/1/1 13/13/13 2/2/2 
f 14/14/14 6/15/6 5/16/5 
f 5/16/5 15/17/15 14/14/14 
f 16/18/16 14/14/14 15/17/15 
f 15/17/15 17/19/17 16/18/16 
f 18/20/18 16/18/16 17/19/17 
f 17/19/17 19/21/19 18/20/18 
f 20/22/20 18/20/18 19/21/19 
f 19/21/19 21/23/21 20/22/20 
f 22/24/22 20/22/20 21/23/21 
f 21/23/21 23/25/23 22/24/22 
f 24/26/24 25/27/25 22/28/22 
f 22/28/22 23/29/23 24/26/24 
f 15/14/15 5/15/5 4/16/4 
f 4/16/4 26/17/26 15/14/15 
f 17/18/17 15/14/15 26/17/26 
f 26/17/26 27/19/27 17/18/17 
f 19/20/19 17/18/17 27/19/27 
f 27/19/27 28/21/28 19/20/19 
f 21/22/21 19/20/19 28/21/28 
f 28/21/28 29/23/29 21/22/21 
f 23/24/23 21/22/21 29/23/29 
f 29/23/29 30/25/30 23/24/23 
f 31/26/31 24/27/24 23/28/23 
f 23/28/23 30/29/30 31/26/31 
f 26/14/26 4/15/4 3/16/3 
f 3/16/3 32/17/32 26/14/26 
f 27/18/27 26/14/26 32/17/32 
f 32/17/32 33/19/33 27/18/27 
f 28/20/28 27/18/27 33/19/33 
f 33/19/33 34/21/34 28/20/28 
f 29/22/29 28/20/28 34/21/34 
f 34/21/34 35/23/35 29/22/29 
f 30/24/30 29/22/29 35/23/35 
f 35/23/35 36/25/36 30/24/30 
f 37/26/37 31/27/31 30/28/30 
f 30/28/30 36/29/36 37/26/37 
f 32/14/32 3/15/3 2/16/2 
f 2/16/2 38/17/38 32/14/32 
f 33/18/33 32/14/32 38/17/38 
f 38/17/38 39/19/39 33/18/33 
f 34/20/34 33/18/33 39/19/39 
f 39/19/39 40/21/40 34/20/34 
f 35/22/35 34/20/34 40/21/40 
f 40/21/40 41/23/41 35/22/35 
f 36/24/36 35/22/35 41/23/41 
f 41/23/41 42/25/42 36/24/36 
f 43/26/43 37/27/37 36/28/36 
f 36/28/36 42/29/42 43/26/43 
f 38/14/38 2/15/2 13/16/13 
f 13/16/13 44/17/44 38/14/38 
f 39/18/39 38/14/38 44/17/44 
f 44/17/44 45/19/45 39/18/39 
f 40/20/40 39/18/39 45/19/45 
f 45/19/45 46/21/46 40/20/40 
f 41/22/41 40/20/40 46/21/46 
f 46/21/46 47/23/47 41/22/41 
f 42/24/42 41/22/41 47/23/47 
f 47/23/47 48/25/48 42/24/42 
f 49/26/49 43/27/43 42/28/42 
f 42/28/42 48/29/48 49/26/49 
f 44/14/44 13/15/13 12/16/12 
f 12/16/12 50/17/50 44/14/44 
f 45/18/45 44/14/44 50/17/50 
f 50/17/50 51/19/51 45/18/45 
f 46/20/46 45/18/45 51/19/51 
f 51/19/51 52/21/52 46/20/46 
f 47/22/47 46/20/46 52/21/52 
f 52/21/52 53/23/53 47/22/47 
f 48/24/48 47/22/47 53/23/53 
f 53/23/53 54/25/54 48/24/48 
f 55/26/55 49/27/49 48/28/48 
f 48/28/48 54/29/54 55/26/55 
f 50/14/50 12/15/12 11/16/11 
f 11/16/11 56/17/56 50/14/50 
f 51/18/51 50/14/50 56/17/56 
f 56/17/56 57/19/57 51/18/51 
f 52/20/52 51/18/51 57/19/57 
f 57/19/57 58/21/58 52/20/52 
f 53/22/53 52/20/52 58/21/58 
f 58/21/58 59/23/59 53/22/53 
f 54/24/54 53/22/53 59/23/59 
f 59/23/59 60/25/60 54/24/54 
f 61/26/61 55/27/55 54/28/54 
f 54/28/54 60/29/60 61/26/61 
f 56/14/56 11/15/11 10/16/10 
f 10/16/10 62/17/62 56/14/56 
f 57/18/57 56/14/56 62/17/62 
f 62/17/62 63/19/63 57/18/57 
f 58/20/58 57/18/57 63/19/63 
f 63/19/63 64/21/64 58/20/58 
f 59/22/59 58/20/58 64/21/64 
f 64/21/64 65/23/65 59/22/59 
f 60/24/60 59/22/59 65/23/65 
f 65/23/65 66/25/66 60/24/60 
f 67/26/67 61/27/61 60/28/60 
f 60/28/60 66/29/66 67/26/67 
f 62/14/62 10/15/10 9/16/9 
f 9/16/9 68/17/68 62/14/62 
f 63/18/63 62/14/62 68/17/68 
f 68/17/68 69/19/69 63/18/63 
f 64/20/64 63/18/63 69/19/69 
f 69/19/69 70/21/70 64/20/64 
f 65/22/65 64/20/64 70/21/70 
f 70/21/70 71/23/71 65/22/65 
f 66/24/66 65/22/65 71/23/71 
f 71/23/71 72/25/72 66/24/66 
f 73/26/73 67/27/67 66/28/66 
f 66/28/66 72/29/72 73/26/73 
f 68/14/68 9/15/9 8/16/8 
f 8/16/8 74/17/74 68/14/68 
f 69/18/69 68/14/68 74/17/74 
f 74/17/74 75/19/75 69/18/69 
f 70/20/70 69/18/69 75/19/75 
f 75/19/75 76/21/76 70/20/70 
f 71/22/71 70/20/70 76/21/76 
f 76/21/76 77/23/77 71/22/71 
f 72/24/72 71/22/71 77/23/77 
f 77/23/77 78/25/78 72/24/72 
f 79/26/79 73/27/73 72/28/72 
f 72/28/72 78/29/78 79/26/79 
f 74/14/74 8/15/8 7/16/7 
f 7/16/7 80/17/80 74/14/74 
f 75/18/75 74/14/74 80/17/80 
f 80/17/80 81/19/81 75/18/75 
f 76/20/76 75/18/75 81/19/81 
f 81/19/81 82/21/82 76/20/76 
f 77/22/77 76/20/76 82/21/82 
f 82/21/82 83/23/83 77/22/77 
f 78/24/78 77/22/77 83/23/83 
f 83/23/83 84/25/84 78/24/78 
f 85/26/85 79/27/79 78/28/78 
f 78/28/78 84/29/84 85/26/85 
f 80/14/80 7/15/7 6/16/6 
f 6/16/6 14/17/14 80/14/80 
f 81/18/81 80/14/80 14/17/14 
f 14/17/14 16/19/16 81/18/81 
f 82/20/82 81/18/81 16/19/16 
f 16/19/16 18/21/18 82/20/82 
f 83/22/83 82/20/82 18/21/18 
f 18/21/18 20/23/20 83/22/83 
f 84/24/84 83/22/83 20/23/20 
f 20/23/20 22/25/22 84/24/84 
f 25/26/25 85/27/85 84/28/84 
f 84/28/84 22/29/22 25/26/25 
f 86/1/86 87/3/87 88/2/88 
f 86/1/86 89/4/89 87/3/87 
f 86/1/86 90/5/90 89/4/89 
f 86/1/86 91/6/91 90/5/90 
f 86/1/86 92/7/92 91/6/91 
f 86/1/86 93/8/93 92/7/92 
f 86/1/86 94/9/94 93/8/93 
f 86/1/86 95/10/95 94/9/94 
f 86/1/86 96/11/96 95/10/95 
f 86/1/86 97/12/97 96/11/96 
f 86/1/86 98/13/98 97/12/97 
f 86/1/86 88/2/88 98/13/98 
f 99/14/99 100/17/100 90/16/90 
f 90/16/90 91/15/91 99/14/99 
f 101/18/101 102/19/102 100/17/100 
f 100/17/100 99/14/99 101/18/101 
f 103/20/103 104/21/104 102/19/102 
f 102/19/102 101/18/101 103/20/103 
f 105/22/105 106/23/106 104/21/104 
f 104/21/104 103/20/103 105/22/105 
f 107/24/107 108/25/108 106/23/106 
f 106/23/106 105/22/105 107/24/107 
f 24/26/24 108/29/108 107/28/107 
f 107/28/107 25/27/25 24/26/24 
f 100/14/100 109/17/109 89/16/89 
f 89/16/89 90/15/90 100/14/100 
f 102/18/102 110/19/110 109/17/109 
f 109/17/109 100/14/100 102/18/102 
f 104/20/104 111/21/111 110/19/110 
f 110/19/110 102/18/102 104/20/104 
f 106/22/106 112/23/112 111/21/111 
f 111/21/111 104/20/104 106/22/106 
f 108/24/108 113/25/113 112/23/112 
f 112/23/112 106/22/106 108/24/108 
f 31/26/31 113/29/113 108/28/108 
f 108/28/108 24/27/24 31/26/31 
f 109/14/109 114/17/114 87/16/87 
f 87/16/87 89/15/89 109/14/109 
f 110/18/110 115/19/115 114/17/114 
f 114/17/114 109/14/109 110/18/110 
f 111/20/111 116/21/116 115/19/115 
f 115/19/115 110/18/110 111/20/111 
f 112/22/112 117/23/117 116/21/116 
f 116/21/116 111/20/111 112/22/112 
f 113/24/113 118/25/118 117/23/117 
f 117/23/117 112/22/112 113/24/113 
f 37/26/37 118/29/118 113/28/113 
f 113/28/113 31/27/31 37/26/37 
f 114/14/114 119/17/119 88/16/88 
f 88/16/88 87/15/87 114/14/114 
f 115/18/115 120/19/120 119/17/119 
f 119/17/119 114/14/114 115/18/115 
f 116/20/116 121/21/121 120/19/120 
f 120/19/120 115/18/115 116/20/116 
f 117/22/117 122/23/122 121/21/121 
f 121/21/121 116/20/116 117/22/117 
f 118/24/118 123/25/123 122/23/122 
f 122/23/122 117/22/117 118/24/118 
f 43/26/43 123/29/123 118/28/118 
f 118/28/118 37/27/37 43/26/43 
f 119/14/119 124/17/124 98/16/98 
f 98/16/98 88/15/88 119/14/119 
f 120/18/120 125/19/125 124/17/124 
f 124/17/124 119/14/119 120/18/120 
f 121/20/121 126/21/126 125/19/125 
f 125/19/125 120/18/120 121/20/121 
f 122/22/122 127/23/127 126/21/126 
f 126/21/126 121/20/121 122/22/122 
f 123/24/123 128/25/128 127/23/127 
f 127/23/127 122/22/122 123/24/123 
f 49/26/49 128/29/128 123/28/123 
f 123/28/123 43/27/43 49/26/49 
f 124/14/124 129/17/129 97/16/97 
f 97/16/97 98/15/98 124/14/124 
f 125/18/125 130/19/130 129/17/129 
f 129/17/129 124/14/124 125/18/125 
f 126/20/126 131/21/131 130/19/130 
f 130/19/130 125/18/125 126/20/126 
f 127/22/127 132/23/132 131/21/131 
f 131/21/131 126/20/126 127/22/127 
f 128/24/128 133/25/133 132/23/132 
f 132/23/132 127/22/127 128/24/128 
f 55/26/55 133/29/133 128/28/128 
f 128/28/128 49/27/49 55/26/55 
f 129/14/129 134/17/134 96/16/96 
f 96/16/96 97/15/97 129/14/129 
f 130/18/130 135/19/135 134/17/134 
f 134/17/134 129/14/129 130/18/130 
f 131/20/131 136/21/136 135/19/135 
f 135/19/135 130/18/130 131/20/131 
f 132/22/132 137/23/137 136/21/136 
f 136/21/136 131/20/131 132/22/132 
f 133/24/133 138/25/138 137/23/137 
f 137/23/137 132/22/132 133/24/133 
f 61/26/61 138/29/138 133/28/133 
f 133/28/133 55/27/55 61/26/61 
f 134/14/134 139/17/139 95/16/95 
f 95/16/95 96/15/96 134/14/134 
f 135/18/135 140/19/140 139/17/139 
f 139/17/139 134/14/134 135/18/135 
f 136/20/136 141/21/141 140/19/140 
f 140/19/140 135/18/135 136/20/136 
f 137/22/137 142/23/142 141/21/141 
f 141/21/141 136/20/136 137/22/137 
f 138/24/138 143/25/143 142/23/142 
f 142/23/142 137/22/137 138/24/138 
f 67/26/67 143/29/143 138/28/138 
f 138/28/138 61/27/61 67/26/67 
f 139/14/139 144/17/144 94/16/94 
f 94/16/94 95/15/95 139/14/139 
f 140/18/140 145/19/145 144/17/144 
f 144/17/144 139/14/139 140/18/140 
f 141/20/141 146/21/146 145/19/145 
f 145/19/145 140/18/140 141/20/141 
f 142/22/142 147/23/147 146/21/146 
f 146/21/146 141/20/141 142/22/142 
f 143/24/143 148/25/148 147/23/147 
f 147/23/147 142/22/142 143/24/143 
f 73/26/73 148/29/148 143/28/143 
f 143/28/143 67/27/67 73/26/73 
f 144/14/144 149/17/149 93/16/93 
f 93/16/93 94/15/94 144/14/144 
f 145/18/145 150/19/150 149/17/149 
f 149/17/149 144/14/144 145/18/145 
f 146/20/146 151/21/151 150/19/150 
f 150/19/150 145/18/145 146/20/146 
f 147/22/147 152/23/152 151/21/151 
f 151/21/151 146/20/146 147/22/147 
f 148/24/148 153/25/153 152/23/152 
f 152/23/152 147/22/147 148/24/148 
f 79/26/79 153/29/153 148/28/148 
f 148/28/148 73/27/73 79/26/79 
f 149/14/149 154/17/154 92/16/92 
f 92/16/92 93/15/93 149/14/149 
f 150/18/150 155/19/155 154/17/154 
f 154/17/154 149/14/149 150/18/150 
f 151/20/151 156/21/156 155/19/155 
f 155/19/155 150/18/150 151/20/151 
f 152/22/152 157/23/157 156/21/156 
f 156/21/156 151/20/151 152/22/152 
f 153/24/153 158/25/158 157/23/157 
f 157/23/157 152/22/152 153/24/153 
f 85/26/85 158/29/158 153/28/153 
f 153/28/153 79/27/79 85/26/85 
f 154/14/154 99/17/99 91/16/91 
f 91/16/91 92/15/92 154/14/154 
f 155/18/155 101/19/101 99/17/99 
f 99/17/99 154/14/154 155/18/155 
f 156/20/156 103/21/103 101/19/101 
f 101/19/101 155/18/155 156/20/156 
f 157/22/157 105/23/105 103/21/103 
f 103/21/103 156/20/156 157/22/157 
f 158/24/158 107/25/107 105/23/105 
f 105/23/105 157/22/157 158/24/158 
f 25/26/25 107/29/107 158/28/158 
f 158/28/158 85/27/85 25/26/25 
# 312 faces

