# 3ds Max Wavefront OBJ Exporter v0.94b - (c)2007 guruware
# File Created: 08.07.2012 11:44:09

#
# object FuelTank6Sides_lod0
#

v  34.6772 22.8295 2.3121
v  27.5615 31.2253 2.3123
v  29.1756 19.4416 23.3478
v  2.4323 41.4461 2.3121
v  2.2491 34.9877 23.3478
v  13.2611 39.4816 2.3123
v  -0.0000 -0.0000 44.1278
v  16.4373 9.4901 39.9559
v  -0.0000 18.9801 39.9559
v  17.1241 29.6598 23.3246
v  2.8956 18.9027 36.5455
v  15.0566 11.8816 36.5455
v  29.4325 34.0317 0.0000
v  38.9658 22.4969 0.0000
v  32.8033 18.9390 24.2170
v  -0.0000 37.8780 24.2170
v  -0.0000 44.9938 0.0000
v  14.7560 42.5051 0.0000
v  37.1095 -18.6166 2.3121
v  40.8227 -8.2563 2.3123
v  31.4248 -15.5460 23.3478
v  37.1095 18.6166 2.3121
v  31.4248 15.5460 23.3478
v  40.8227 8.2563 2.3123
v  16.4373 -9.4901 39.9559
v  34.2481 0.0000 23.3246
v  17.8180 6.9437 36.5455
v  17.8180 -7.0986 36.5455
v  44.1885 -8.4735 0.0000
v  38.9658 -22.4969 0.0000
v  32.8033 -18.9390 24.2170
v  44.1885 8.4735 0.0000
v  2.4323 -41.4461 2.3121
v  13.2611 -39.4816 2.3123
v  2.2491 -34.9876 23.3478
v  34.6772 -22.8295 2.3121
v  29.1756 -19.4416 23.3478
v  27.5615 -31.2253 2.3123
v  -0.0000 -18.9802 39.9559
v  17.1241 -29.6598 23.3246
v  14.9224 -11.9590 36.5455
v  2.7614 -18.9802 36.5455
v  14.7560 -42.5051 -0.0000
v  0.0000 -44.9938 -0.0000
v  -0.0000 -37.8780 24.2170
v  29.4325 -34.0317 -0.0000
v  -34.6772 -22.8295 2.3121
v  -27.5615 -31.2253 2.3123
v  -29.1756 -19.4416 23.3478
v  -2.4323 -41.4461 2.3121
v  -2.2492 -34.9877 23.3478
v  -13.2611 -39.4816 2.3123
v  -16.4373 -9.4901 39.9559
v  -17.1241 -29.6598 23.3246
v  -2.8956 -18.9027 36.5455
v  -15.0566 -11.8816 36.5455
v  -29.4325 -34.0317 -0.0000
v  -38.9658 -22.4969 -0.0000
v  -32.8033 -18.9390 24.2170
v  -14.7560 -42.5051 -0.0000
v  -37.1095 18.6166 2.3121
v  -40.8227 8.2563 2.3123
v  -31.4248 15.5460 23.3478
v  -37.1095 -18.6166 2.3121
v  -31.4248 -15.5460 23.3478
v  -40.8227 -8.2563 2.3123
v  -16.4373 9.4901 39.9559
v  -34.2482 0.0000 23.3246
v  -17.8180 -6.9437 36.5455
v  -17.8180 7.0986 36.5455
v  -44.1885 8.4735 -0.0000
v  -38.9658 22.4969 -0.0000
v  -32.8033 18.9390 24.2170
v  -44.1885 -8.4735 -0.0000
v  -2.4323 41.4460 2.3121
v  -13.2611 39.4816 2.3123
v  -2.2491 34.9877 23.3478
v  -34.6772 22.8295 2.3121
v  -29.1756 19.4416 23.3478
v  -27.5615 31.2253 2.3123
v  -17.1241 29.6598 23.3246
v  -14.9224 11.9590 36.5455
v  -2.7615 18.9801 36.5455
v  -14.7560 42.5051 0.0000
v  -29.4325 34.0317 -0.0000
v  -34.6772 22.8295 -2.3121
v  -27.5615 31.2253 -2.3123
v  -29.1756 19.4416 -23.3478
v  -2.4323 41.4461 -2.3121
v  -2.2491 34.9877 -23.3478
v  -13.2611 39.4816 -2.3123
v  0.0000 0.0000 -44.1278
v  -16.4373 9.4901 -39.9559
v  -0.0000 18.9802 -39.9559
v  -17.1241 29.6598 -23.3246
v  -2.8956 18.9027 -36.5455
v  -15.0566 11.8816 -36.5455
v  -32.8033 18.9390 -24.2170
v  -0.0000 37.8780 -24.2170
v  -37.1095 -18.6166 -2.3121
v  -40.8227 -8.2563 -2.3123
v  -31.4248 -15.5460 -23.3478
v  -37.1095 18.6166 -2.3121
v  -31.4248 15.5460 -23.3478
v  -40.8227 8.2563 -2.3123
v  -16.4373 -9.4901 -39.9559
v  -34.2481 -0.0000 -23.3246
v  -17.8180 6.9437 -36.5455
v  -17.8180 -7.0986 -36.5455
v  -32.8033 -18.9390 -24.2170
v  -2.4323 -41.4461 -2.3121
v  -13.2611 -39.4816 -2.3123
v  -2.2491 -34.9876 -23.3478
v  -34.6772 -22.8295 -2.3121
v  -29.1756 -19.4416 -23.3478
v  -27.5615 -31.2253 -2.3123
v  0.0000 -18.9801 -39.9559
v  -17.1241 -29.6598 -23.3246
v  -14.9224 -11.9590 -36.5455
v  -2.7614 -18.9802 -36.5455
v  0.0000 -37.8780 -24.2170
v  34.6772 -22.8295 -2.3121
v  27.5615 -31.2253 -2.3123
v  29.1756 -19.4416 -23.3478
v  2.4323 -41.4461 -2.3121
v  2.2492 -34.9877 -23.3478
v  13.2611 -39.4816 -2.3123
v  16.4373 -9.4901 -39.9559
v  17.1241 -29.6598 -23.3246
v  2.8956 -18.9027 -36.5455
v  15.0566 -11.8816 -36.5455
v  32.8033 -18.9390 -24.2170
v  37.1095 18.6166 -2.3121
v  40.8227 8.2563 -2.3123
v  31.4248 15.5460 -23.3478
v  37.1095 -18.6166 -2.3121
v  31.4248 -15.5460 -23.3478
v  40.8227 -8.2563 -2.3123
v  16.4373 9.4901 -39.9559
v  34.2482 0.0000 -23.3246
v  17.8180 -6.9437 -36.5455
v  17.8180 7.0986 -36.5455
v  32.8033 18.9390 -24.2170
v  2.4323 41.4460 -2.3121
v  13.2611 39.4816 -2.3123
v  2.2491 34.9877 -23.3478
v  34.6772 22.8295 -2.3121
v  29.1756 19.4417 -23.3478
v  27.5615 31.2253 -2.3123
v  17.1241 29.6598 -23.3246
v  14.9224 11.9590 -36.5455
v  2.7614 18.9802 -36.5455
# 152 vertices

vn 0.4647 0.7375 0.4901
vn 0.5070 0.6034 0.6155
vn 0.2896 0.8343 0.4692
vn 0.4064 0.7712 0.4901
vn 0.5778 0.6678 0.4692
vn 0.2690 0.7408 0.6155
vn -0.0000 -0.0000 1.0000
vn 0.5260 0.3050 0.7939
vn -0.0012 0.6080 0.7939
vn 0.4150 0.7189 0.5576
vn 0.4902 0.6481 0.5829
vn 0.3102 0.7518 0.5819
vn 0.6354 0.7722 -0.0000
vn 0.8660 0.5000 0.0000
vn 0.7357 0.4248 0.5276
vn -0.0000 0.8495 0.5276
vn -0.0000 1.0000 0.0000
vn 0.3510 0.9364 0.0000
vn 0.8710 -0.0336 0.4901
vn 0.7760 -0.1374 0.6155
vn 0.8673 0.1663 0.4692
vn 0.8710 0.0336 0.4901
vn 0.8672 -0.1665 0.4692
vn 0.7760 0.1374 0.6155
vn 0.5271 -0.3030 0.7939
vn 0.8301 0.0001 0.5576
vn 0.8063 -0.1005 0.5829
vn 0.8062 0.1072 0.5819
vn 0.9864 -0.1642 -0.0000
vn 0.8660 -0.5000 -0.0000
vn 0.7357 -0.4248 0.5276
vn 0.9864 0.1642 -0.0000
vn 0.4064 -0.7712 0.4901
vn 0.2690 -0.7408 0.6155
vn 0.5777 -0.6679 0.4692
vn 0.4647 -0.7375 0.4901
vn 0.2895 -0.8343 0.4692
vn 0.5070 -0.6034 0.6155
vn 0.0012 -0.6080 0.7939
vn 0.4151 -0.7188 0.5576
vn 0.3162 -0.7486 0.5829
vn 0.4959 -0.6445 0.5819
vn 0.3510 -0.9364 0.0000
vn 0.0000 -1.0000 -0.0000
vn 0.0000 -0.8495 0.5276
vn 0.6354 -0.7722 0.0000
vn -0.4647 -0.7375 0.4901
vn -0.5070 -0.6034 0.6155
vn -0.2896 -0.8343 0.4692
vn -0.4064 -0.7712 0.4901
vn -0.5778 -0.6678 0.4692
vn -0.2690 -0.7408 0.6155
vn -0.5260 -0.3050 0.7939
vn -0.4150 -0.7189 0.5576
vn -0.4902 -0.6481 0.5829
vn -0.3102 -0.7518 0.5819
vn -0.6354 -0.7722 -0.0000
vn -0.8660 -0.5000 0.0000
vn -0.7357 -0.4248 0.5276
vn -0.3510 -0.9364 -0.0000
vn -0.8710 0.0336 0.4901
vn -0.7760 0.1374 0.6155
vn -0.8673 -0.1663 0.4692
vn -0.8710 -0.0336 0.4901
vn -0.8672 0.1665 0.4692
vn -0.7760 -0.1374 0.6155
vn -0.5271 0.3030 0.7939
vn -0.8301 -0.0001 0.5576
vn -0.8063 0.1005 0.5829
vn -0.8062 -0.1072 0.5819
vn -0.9864 0.1642 0.0000
vn -0.8660 0.5000 -0.0000
vn -0.7357 0.4248 0.5276
vn -0.9864 -0.1642 0.0000
vn -0.4064 0.7712 0.4901
vn -0.2690 0.7408 0.6155
vn -0.5777 0.6679 0.4692
vn -0.4647 0.7375 0.4901
vn -0.2895 0.8343 0.4692
vn -0.5070 0.6034 0.6155
vn -0.4151 0.7188 0.5576
vn -0.3162 0.7486 0.5829
vn -0.4959 0.6445 0.5819
vn -0.3510 0.9364 0.0000
vn -0.6354 0.7722 0.0000
vn -0.4647 0.7375 -0.4901
vn -0.5070 0.6034 -0.6155
vn -0.2896 0.8343 -0.4692
vn -0.4064 0.7712 -0.4901
vn -0.5778 0.6678 -0.4692
vn -0.2690 0.7408 -0.6155
vn 0.0000 0.0000 -1.0000
vn -0.5260 0.3050 -0.7939
vn 0.0012 0.6080 -0.7939
vn -0.4150 0.7189 -0.5576
vn -0.4902 0.6481 -0.5829
vn -0.3102 0.7518 -0.5819
vn -0.7357 0.4248 -0.5276
vn 0.0000 0.8495 -0.5276
vn -0.8710 -0.0336 -0.4901
vn -0.7760 -0.1374 -0.6155
vn -0.8673 0.1663 -0.4692
vn -0.8710 0.0336 -0.4901
vn -0.8672 -0.1665 -0.4692
vn -0.7760 0.1374 -0.6155
vn -0.5271 -0.3030 -0.7939
vn -0.8301 0.0001 -0.5576
vn -0.8063 -0.1005 -0.5829
vn -0.8062 0.1072 -0.5819
vn -0.7357 -0.4248 -0.5276
vn -0.4064 -0.7711 -0.4901
vn -0.2690 -0.7408 -0.6155
vn -0.5777 -0.6679 -0.4692
vn -0.4647 -0.7375 -0.4901
vn -0.2895 -0.8343 -0.4692
vn -0.5070 -0.6034 -0.6155
vn -0.0012 -0.6080 -0.7939
vn -0.4151 -0.7188 -0.5576
vn -0.3162 -0.7486 -0.5829
vn -0.4959 -0.6445 -0.5819
vn -0.0000 -0.8495 -0.5276
vn 0.4647 -0.7375 -0.4901
vn 0.5070 -0.6034 -0.6155
vn 0.2896 -0.8343 -0.4692
vn 0.4064 -0.7712 -0.4901
vn 0.5778 -0.6678 -0.4692
vn 0.2690 -0.7408 -0.6155
vn 0.5260 -0.3050 -0.7939
vn 0.4150 -0.7189 -0.5576
vn 0.4902 -0.6481 -0.5829
vn 0.3102 -0.7518 -0.5819
vn 0.7357 -0.4248 -0.5276
vn 0.8710 0.0336 -0.4901
vn 0.7760 0.1374 -0.6155
vn 0.8673 -0.1663 -0.4692
vn 0.8710 -0.0336 -0.4901
vn 0.8672 0.1665 -0.4692
vn 0.7760 -0.1374 -0.6155
vn 0.5271 0.3030 -0.7939
vn 0.8301 -0.0001 -0.5576
vn 0.8063 0.1005 -0.5829
vn 0.8062 -0.1072 -0.5819
vn 0.7357 0.4248 -0.5276
vn 0.4064 0.7712 -0.4901
vn 0.2690 0.7408 -0.6155
vn 0.5777 0.6679 -0.4692
vn 0.4647 0.7375 -0.4901
vn 0.2895 0.8343 -0.4692
vn 0.5070 0.6034 -0.6155
vn 0.4151 0.7188 -0.5576
vn 0.3162 0.7486 -0.5829
vn 0.4959 0.6445 -0.5819
# 152 vertex normals

vt 0.5700 0.5735 0.6298
vt 0.5477 0.6719 0.5780
vt 0.7534 0.6027 0.4535
vt 0.5700 0.9272 0.6298
vt 0.7534 0.8981 0.4535
vt 0.5477 0.8288 0.5780
vt 0.8926 0.5042 1.7057
vt 0.8401 0.5952 1.5917
vt 0.7875 0.5042 1.5917
vt 0.7363 0.7504 0.4144
vt 0.9311 0.8171 0.5023
vt 0.9311 0.6836 0.5023
vt 0.9620 0.8495 0.4608
vt 0.9620 0.6512 0.4608
vt 0.5036 0.6699 0.5592
vt 0.5349 0.5217 0.6320
vt 0.7517 0.5592 0.4241
vt 0.7517 0.9416 0.4241
vt 0.5349 0.9790 0.6320
vt 0.5036 0.8309 0.5592
vt 0.9452 0.5952 1.5917
vt 0.9977 0.5042 1.5917
vt 0.8938 0.9969 1.7057
vt 0.9464 0.9059 1.5917
vt 0.9990 0.9969 1.5917
vt 0.8413 0.9059 1.5917
vt 0.7887 0.9969 1.5917
vt 0.8938 0.9969 -0.7057
vt 0.8413 0.9059 -0.5917
vt 0.7887 0.9969 -0.5917
vt 0.9464 0.9059 -0.5917
vt 0.9990 0.9969 -0.5917
vt 0.8926 0.5042 -0.7057
vt 0.9452 0.5952 -0.5917
vt 0.9977 0.5042 -0.5917
vt 0.8401 0.5952 -0.5917
vt 0.7875 0.5042 -0.5917
# 37 texture coords

g FuelTank6Sides_lod0
f 1/1/1 2/2/2 3/3/3 
f 4/4/4 5/5/5 6/6/6 
f 7/7/7 8/8/8 9/9/9 
f 10/10/10 3/3/3 2/2/2 
f 10/10/10 6/6/6 5/5/5 
f 10/10/10 11/11/11 12/12/12 
f 6/6/6 10/10/10 2/2/2 
f 11/11/11 10/10/10 5/5/5 
f 3/3/3 10/10/10 12/12/12 
f 9/13/9 8/14/8 12/12/12 
f 12/12/12 11/11/11 9/13/9 
f 13/15/13 2/2/2 1/1/1 
f 1/1/1 14/16/14 13/15/13 
f 15/17/15 14/16/14 1/1/1 
f 1/1/1 3/3/3 15/17/15 
f 16/18/16 5/5/5 4/4/4 
f 4/4/4 17/19/17 16/18/16 
f 18/20/18 17/19/17 4/4/4 
f 4/4/4 6/6/6 18/20/18 
f 18/20/18 6/6/6 2/2/2 
f 2/2/2 13/15/13 18/20/18 
f 9/13/9 11/11/11 5/5/5 
f 5/5/5 16/18/16 9/13/9 
f 8/14/8 15/17/15 3/3/3 
f 3/3/3 12/12/12 8/14/8 
f 19/1/19 20/2/20 21/3/21 
f 22/4/22 23/5/23 24/6/24 
f 7/7/7 25/21/25 8/8/8 
f 26/10/26 21/3/21 20/2/20 
f 26/10/26 24/6/24 23/5/23 
f 26/10/26 27/11/27 28/12/28 
f 24/6/24 26/10/26 20/2/20 
f 27/11/27 26/10/26 23/5/23 
f 21/3/21 26/10/26 28/12/28 
f 8/13/8 25/14/25 28/12/28 
f 28/12/28 27/11/27 8/13/8 
f 29/15/29 20/2/20 19/1/19 
f 19/1/19 30/16/30 29/15/29 
f 31/17/31 30/16/30 19/1/19 
f 19/1/19 21/3/21 31/17/31 
f 15/18/15 23/5/23 22/4/22 
f 22/4/22 14/19/14 15/18/15 
f 32/20/32 14/19/14 22/4/22 
f 22/4/22 24/6/24 32/20/32 
f 32/20/32 24/6/24 20/2/20 
f 20/2/20 29/15/29 32/20/32 
f 8/13/8 27/11/27 23/5/23 
f 23/5/23 15/18/15 8/13/8 
f 25/14/25 31/17/31 21/3/21 
f 21/3/21 28/12/28 25/14/25 
f 33/1/33 34/2/34 35/3/35 
f 36/4/36 37/5/37 38/6/38 
f 7/7/7 39/22/39 25/21/25 
f 40/10/40 35/3/35 34/2/34 
f 40/10/40 38/6/38 37/5/37 
f 40/10/40 41/11/41 42/12/42 
f 38/6/38 40/10/40 34/2/34 
f 41/11/41 40/10/40 37/5/37 
f 35/3/35 40/10/40 42/12/42 
f 25/13/25 39/14/39 42/12/42 
f 42/12/42 41/11/41 25/13/25 
f 43/15/43 34/2/34 33/1/33 
f 33/1/33 44/16/44 43/15/43 
f 45/17/45 44/16/44 33/1/33 
f 33/1/33 35/3/35 45/17/45 
f 31/18/31 37/5/37 36/4/36 
f 36/4/36 30/19/30 31/18/31 
f 46/20/46 30/19/30 36/4/36 
f 36/4/36 38/6/38 46/20/46 
f 46/20/46 38/6/38 34/2/34 
f 34/2/34 43/15/43 46/20/46 
f 25/13/25 41/11/41 37/5/37 
f 37/5/37 31/18/31 25/13/25 
f 39/14/39 45/17/45 35/3/35 
f 35/3/35 42/12/42 39/14/39 
f 47/1/47 48/2/48 49/3/49 
f 50/4/50 51/5/51 52/6/52 
f 7/23/7 53/24/53 39/25/39 
f 54/10/54 49/3/49 48/2/48 
f 54/10/54 52/6/52 51/5/51 
f 54/10/54 55/11/55 56/12/56 
f 52/6/52 54/10/54 48/2/48 
f 55/11/55 54/10/54 51/5/51 
f 49/3/49 54/10/54 56/12/56 
f 39/13/39 53/14/53 56/12/56 
f 56/12/56 55/11/55 39/13/39 
f 57/15/57 48/2/48 47/1/47 
f 47/1/47 58/16/58 57/15/57 
f 59/17/59 58/16/58 47/1/47 
f 47/1/47 49/3/49 59/17/59 
f 45/18/45 51/5/51 50/4/50 
f 50/4/50 44/19/44 45/18/45 
f 60/20/60 44/19/44 50/4/50 
f 50/4/50 52/6/52 60/20/60 
f 60/20/60 52/6/52 48/2/48 
f 48/2/48 57/15/57 60/20/60 
f 39/13/39 55/11/55 51/5/51 
f 51/5/51 45/18/45 39/13/39 
f 53/14/53 59/17/59 49/3/49 
f 49/3/49 56/12/56 53/14/53 
f 61/1/61 62/2/62 63/3/63 
f 64/4/64 65/5/65 66/6/66 
f 7/23/7 67/26/67 53/24/53 
f 68/10/68 63/3/63 62/2/62 
f 68/10/68 66/6/66 65/5/65 
f 68/10/68 69/11/69 70/12/70 
f 66/6/66 68/10/68 62/2/62 
f 69/11/69 68/10/68 65/5/65 
f 63/3/63 68/10/68 70/12/70 
f 53/13/53 67/14/67 70/12/70 
f 70/12/70 69/11/69 53/13/53 
f 71/15/71 62/2/62 61/1/61 
f 61/1/61 72/16/72 71/15/71 
f 73/17/73 72/16/72 61/1/61 
f 61/1/61 63/3/63 73/17/73 
f 59/18/59 65/5/65 64/4/64 
f 64/4/64 58/19/58 59/18/59 
f 74/20/74 58/19/58 64/4/64 
f 64/4/64 66/6/66 74/20/74 
f 74/20/74 66/6/66 62/2/62 
f 62/2/62 71/15/71 74/20/74 
f 53/13/53 69/11/69 65/5/65 
f 65/5/65 59/18/59 53/13/53 
f 67/14/67 73/17/73 63/3/63 
f 63/3/63 70/12/70 67/14/67 
f 75/1/75 76/2/76 77/3/77 
f 78/4/78 79/5/79 80/6/80 
f 7/23/7 9/27/9 67/26/67 
f 81/10/81 77/3/77 76/2/76 
f 81/10/81 80/6/80 79/5/79 
f 81/10/81 82/11/82 83/12/83 
f 80/6/80 81/10/81 76/2/76 
f 82/11/82 81/10/81 79/5/79 
f 77/3/77 81/10/81 83/12/83 
f 67/13/67 9/14/9 83/12/83 
f 83/12/83 82/11/82 67/13/67 
f 84/15/84 76/2/76 75/1/75 
f 75/1/75 17/16/17 84/15/84 
f 16/17/16 17/16/17 75/1/75 
f 75/1/75 77/3/77 16/17/16 
f 73/18/73 79/5/79 78/4/78 
f 78/4/78 72/19/72 73/18/73 
f 85/20/85 72/19/72 78/4/78 
f 78/4/78 80/6/80 85/20/85 
f 85/20/85 80/6/80 76/2/76 
f 76/2/76 84/15/84 85/20/85 
f 67/13/67 82/11/82 79/5/79 
f 79/5/79 73/18/73 67/13/67 
f 9/14/9 16/17/16 77/3/77 
f 77/3/77 83/12/83 9/14/9 
f 86/1/86 87/2/87 88/3/88 
f 89/4/89 90/5/90 91/6/91 
f 92/28/92 93/29/93 94/30/94 
f 95/10/95 88/3/88 87/2/87 
f 95/10/95 91/6/91 90/5/90 
f 95/10/95 96/11/96 97/12/97 
f 91/6/91 95/10/95 87/2/87 
f 96/11/96 95/10/95 90/5/90 
f 88/3/88 95/10/95 97/12/97 
f 94/13/94 93/14/93 97/12/97 
f 97/12/97 96/11/96 94/13/94 
f 85/15/85 87/2/87 86/1/86 
f 86/1/86 72/16/72 85/15/85 
f 98/17/98 72/16/72 86/1/86 
f 86/1/86 88/3/88 98/17/98 
f 99/18/99 90/5/90 89/4/89 
f 89/4/89 17/19/17 99/18/99 
f 84/20/84 17/19/17 89/4/89 
f 89/4/89 91/6/91 84/20/84 
f 84/20/84 91/6/91 87/2/87 
f 87/2/87 85/15/85 84/20/84 
f 94/13/94 96/11/96 90/5/90 
f 90/5/90 99/18/99 94/13/94 
f 93/14/93 98/17/98 88/3/88 
f 88/3/88 97/12/97 93/14/93 
f 100/1/100 101/2/101 102/3/102 
f 103/4/103 104/5/104 105/6/105 
f 92/28/92 106/31/106 93/29/93 
f 107/10/107 102/3/102 101/2/101 
f 107/10/107 105/6/105 104/5/104 
f 107/10/107 108/11/108 109/12/109 
f 105/6/105 107/10/107 101/2/101 
f 108/11/108 107/10/107 104/5/104 
f 102/3/102 107/10/107 109/12/109 
f 93/13/93 106/14/106 109/12/109 
f 109/12/109 108/11/108 93/13/93 
f 74/15/74 101/2/101 100/1/100 
f 100/1/100 58/16/58 74/15/74 
f 110/17/110 58/16/58 100/1/100 
f 100/1/100 102/3/102 110/17/110 
f 98/18/98 104/5/104 103/4/103 
f 103/4/103 72/19/72 98/18/98 
f 71/20/71 72/19/72 103/4/103 
f 103/4/103 105/6/105 71/20/71 
f 71/20/71 105/6/105 101/2/101 
f 101/2/101 74/15/74 71/20/71 
f 93/13/93 108/11/108 104/5/104 
f 104/5/104 98/18/98 93/13/93 
f 106/14/106 110/17/110 102/3/102 
f 102/3/102 109/12/109 106/14/106 
f 111/1/111 112/2/112 113/3/113 
f 114/4/114 115/5/115 116/6/116 
f 92/28/92 117/32/117 106/31/106 
f 118/10/118 113/3/113 112/2/112 
f 118/10/118 116/6/116 115/5/115 
f 118/10/118 119/11/119 120/12/120 
f 116/6/116 118/10/118 112/2/112 
f 119/11/119 118/10/118 115/5/115 
f 113/3/113 118/10/118 120/12/120 
f 106/13/106 117/14/117 120/12/120 
f 120/12/120 119/11/119 106/13/106 
f 60/15/60 112/2/112 111/1/111 
f 111/1/111 44/16/44 60/15/60 
f 121/17/121 44/16/44 111/1/111 
f 111/1/111 113/3/113 121/17/121 
f 110/18/110 115/5/115 114/4/114 
f 114/4/114 58/19/58 110/18/110 
f 57/20/57 58/19/58 114/4/114 
f 114/4/114 116/6/116 57/20/57 
f 57/20/57 116/6/116 112/2/112 
f 112/2/112 60/15/60 57/20/57 
f 106/13/106 119/11/119 115/5/115 
f 115/5/115 110/18/110 106/13/106 
f 117/14/117 121/17/121 113/3/113 
f 113/3/113 120/12/120 117/14/117 
f 122/1/122 123/2/123 124/3/124 
f 125/4/125 126/5/126 127/6/127 
f 92/33/92 128/34/128 117/35/117 
f 129/10/129 124/3/124 123/2/123 
f 129/10/129 127/6/127 126/5/126 
f 129/10/129 130/11/130 131/12/131 
f 127/6/127 129/10/129 123/2/123 
f 130/11/130 129/10/129 126/5/126 
f 124/3/124 129/10/129 131/12/131 
f 117/13/117 128/14/128 131/12/131 
f 131/12/131 130/11/130 117/13/117 
f 46/15/46 123/2/123 122/1/122 
f 122/1/122 30/16/30 46/15/46 
f 132/17/132 30/16/30 122/1/122 
f 122/1/122 124/3/124 132/17/132 
f 121/18/121 126/5/126 125/4/125 
f 125/4/125 44/19/44 121/18/121 
f 43/20/43 44/19/44 125/4/125 
f 125/4/125 127/6/127 43/20/43 
f 43/20/43 127/6/127 123/2/123 
f 123/2/123 46/15/46 43/20/43 
f 117/13/117 130/11/130 126/5/126 
f 126/5/126 121/18/121 117/13/117 
f 128/14/128 132/17/132 124/3/124 
f 124/3/124 131/12/131 128/14/128 
f 133/1/133 134/2/134 135/3/135 
f 136/4/136 137/5/137 138/6/138 
f 92/33/92 139/36/139 128/34/128 
f 140/10/140 135/3/135 134/2/134 
f 140/10/140 138/6/138 137/5/137 
f 140/10/140 141/11/141 142/12/142 
f 138/6/138 140/10/140 134/2/134 
f 141/11/141 140/10/140 137/5/137 
f 135/3/135 140/10/140 142/12/142 
f 128/13/128 139/14/139 142/12/142 
f 142/12/142 141/11/141 128/13/128 
f 32/15/32 134/2/134 133/1/133 
f 133/1/133 14/16/14 32/15/32 
f 143/17/143 14/16/14 133/1/133 
f 133/1/133 135/3/135 143/17/143 
f 132/18/132 137/5/137 136/4/136 
f 136/4/136 30/19/30 132/18/132 
f 29/20/29 30/19/30 136/4/136 
f 136/4/136 138/6/138 29/20/29 
f 29/20/29 138/6/138 134/2/134 
f 134/2/134 32/15/32 29/20/29 
f 128/13/128 141/11/141 137/5/137 
f 137/5/137 132/18/132 128/13/128 
f 139/14/139 143/17/143 135/3/135 
f 135/3/135 142/12/142 139/14/139 
f 144/1/144 145/2/145 146/3/146 
f 147/4/147 148/5/148 149/6/149 
f 92/33/92 94/37/94 139/36/139 
f 150/10/150 146/3/146 145/2/145 
f 150/10/150 149/6/149 148/5/148 
f 150/10/150 151/11/151 152/12/152 
f 149/6/149 150/10/150 145/2/145 
f 151/11/151 150/10/150 148/5/148 
f 146/3/146 150/10/150 152/12/152 
f 139/13/139 94/14/94 152/12/152 
f 152/12/152 151/11/151 139/13/139 
f 18/15/18 145/2/145 144/1/144 
f 144/1/144 17/16/17 18/15/18 
f 99/17/99 17/16/17 144/1/144 
f 144/1/144 146/3/146 99/17/99 
f 143/18/143 148/5/148 147/4/147 
f 147/4/147 14/19/14 143/18/143 
f 13/20/13 14/19/14 147/4/147 
f 147/4/147 149/6/149 13/20/13 
f 13/20/13 149/6/149 145/2/145 
f 145/2/145 18/15/18 13/20/13 
f 139/13/139 151/11/151 148/5/148 
f 148/5/148 143/18/143 139/13/139 
f 94/14/94 99/17/99 146/3/146 
f 146/3/146 152/12/152 94/14/94 
# 300 faces

