# 3ds Max Wavefront OBJ Exporter v0.94b - (c)2007 guruware
# File Created: 08.07.2012 12:01:05

#
# object Line454
#

v  10.0000 -0.4330 0.2500
v  0.0000 -0.4330 0.2500
v  0.0000 -0.0000 -0.5000
v  10.0000 0.0000 -0.5000
v  10.0000 0.4330 0.2500
v  0.0000 0.4330 0.2500
# 6 vertices

vn 0.0000 -0.8660 0.5000
vn -0.0000 -0.0000 -1.0000
vn -0.0000 0.0000 -1.0000
vn -0.0000 0.8660 0.5000
# 4 vertex normals

vt 0.7844 0.0306 1.3215
vt 0.9771 0.0306 1.3216
vt 0.9771 0.0462 0.8652
vt 0.7844 0.0462 0.8652
vt 0.7844 0.0188 1.3216
vt 0.9771 0.0188 1.3215
vt 0.7844 0.0032 0.8652
vt 0.9771 0.0032 0.8652
# 8 texture coords

g Line454
f 1/1/1 2/2/1 3/3/2 
f 3/3/2 4/4/3 1/1/1 
f 5/5/4 6/6/4 2/2/1 
f 2/2/1 1/1/1 5/5/4 
f 4/7/3 3/8/2 6/6/4 
f 6/6/4 5/5/4 4/7/3 
# 6 faces

