# 3ds Max Wavefront OBJ Exporter v0.94b - (c)2007 guruware
# File Created: 08.07.2012 11:58:08

#
# object ShildLod0
#

v  8.6785 0.0000 0.0000
v  8.6785 0.0000 1.0000
v  -4.3392 -7.5158 1.0000
v  -4.3392 -7.5158 0.0000
v  8.2785 0.0000 1.0000
v  -4.1392 -7.1694 1.0000
v  7.6785 0.0000 0.7000
v  -3.8392 -6.6498 0.7000
v  -3.8392 6.6498 0.7000
v  -4.3392 7.5158 -0.0000
v  -0.0000 0.0000 -10.4617
v  7.8537 -0.4330 -0.0000
v  0.2495 -0.4321 -9.0241
v  0.2495 0.4322 -9.0241
v  7.8537 0.4330 -0.0000
v  -0.4990 0.0000 -9.0241
v  -4.3393 7.5158 1.0000
v  -4.1393 7.1694 1.0000
v  -4.3019 -6.5850 -0.0000
v  -3.5519 -7.0180 -0.0000
v  -3.5519 7.0180 -0.0000
v  -4.3019 6.5850 -0.0000
# 22 vertices

vn 0.5000 -0.8660 0.0000
vn -0.0000 0.0000 1.0000
vn -0.0771 0.1335 0.9880
vn -0.3536 0.6124 0.7071
vn 0.0000 -0.0000 -1.0000
vn 0.7674 0.0004 -0.6411
vn 0.7673 0.0008 -0.6413
vn -0.1414 -0.9819 0.1257
vn -0.0972 -0.9919 0.0818
vn -0.0891 0.9927 0.0809
vn -0.1415 0.9827 0.1191
vn -1.0000 -0.0000 0.0000
vn -1.0000 -0.0000 -0.0000
vn 0.1542 0.0000 0.9880
vn 0.7071 0.0000 0.7071
vn -0.3834 -0.6648 -0.6411
vn -0.3830 -0.6649 -0.6413
vn -0.7797 0.6134 0.1257
vn -0.8104 0.5801 0.0818
vn 0.9043 -0.4192 0.0809
vn 0.9218 -0.3688 0.1191
vn 0.5000 0.8660 0.0000
vn -0.0771 -0.1335 0.9880
vn -0.3536 -0.6124 0.7071
vn -0.3841 0.6644 -0.6411
vn -0.3843 0.6641 -0.6413
vn 0.9211 0.3685 0.1257
vn 0.9076 0.4118 0.0818
vn -0.8152 -0.5735 0.0809
vn -0.7803 -0.6139 0.1191
# 30 vertex normals

vt 0.7521 0.0271 0.0000
vt 0.7667 0.0271 0.0000
vt 0.7667 0.2478 0.0000
vt 0.7521 0.2478 0.0000
vt 0.7697 0.0322 0.0000
vt 0.7697 0.2427 0.0000
vt 0.7759 0.0398 0.0000
vt 0.7759 0.2350 0.0000
vt 0.7836 0.2372 0.0000
vt 0.7833 0.0522 0.0000
vt 0.9683 0.0525 0.0000
vt 0.7901 0.2487 0.0000
vt 0.9988 0.0400 0.0000
vt 0.9985 0.2484 0.0000
vt 0.7561 0.0166 0.0000
vt 0.9993 0.0164 0.0000
vt 0.9899 0.0302 0.0000
vt 0.7787 0.0317 0.0000
vt 0.7787 0.0015 0.0000
vt 0.9899 0.0027 0.0000
vt 0.9900 0.0457 0.0000
vt 0.7788 0.0471 0.0000
vt 0.7508 0.0155 0.0000
vt 0.7508 0.0005 0.0000
vt 0.7638 0.0080 0.0000
# 25 texture coords

g ShildLod0
f 1/1/1 2/2/1 3/3/1 
f 3/3/1 4/4/1 1/1/1 
f 2/2/2 5/5/3 6/6/3 
f 6/6/3 3/3/2 2/2/2 
f 5/5/3 7/7/4 8/8/4 
f 8/8/4 6/6/3 5/5/3 
f 7/9/2 9/10/2 8/11/2 
f 1/12/5 4/13/5 10/14/5 
f 11/15/6 1/16/7 12/17/8 
f 12/17/8 13/18/9 11/15/6 
f 14/19/10 15/20/11 1/16/7 
f 1/16/7 11/15/6 14/19/10 
f 13/18/9 12/17/8 15/21/11 
f 15/21/11 14/22/10 13/18/9 
f 14/23/2 16/24/2 13/25/2 
f 4/1/12 3/2/12 17/3/12 
f 17/3/13 10/4/13 4/1/13 
f 3/2/2 6/5/14 18/6/14 
f 18/6/14 17/3/2 3/2/2 
f 6/5/14 8/7/15 9/8/15 
f 9/8/15 18/6/14 6/5/14 
f 11/15/16 4/16/17 19/17/18 
f 19/17/18 16/18/19 11/15/16 
f 13/19/20 20/20/21 4/16/17 
f 4/16/17 11/15/16 13/19/20 
f 16/18/19 19/17/18 20/21/21 
f 20/21/21 13/22/20 16/18/19 
f 10/1/22 17/2/22 2/3/22 
f 2/3/22 1/4/22 10/1/22 
f 17/2/2 18/5/23 5/6/23 
f 5/6/23 2/3/2 17/2/2 
f 18/5/23 9/7/24 7/8/24 
f 7/8/24 5/6/23 18/5/23 
f 11/15/25 10/16/26 21/17/27 
f 21/17/27 14/18/28 11/15/25 
f 16/19/29 22/20/30 10/16/26 
f 10/16/26 11/15/25 16/19/29 
f 14/18/28 21/17/27 22/21/30 
f 22/21/30 16/22/29 14/18/28 
# 39 faces

